<?xml version="1.0" standalone="no"?>
<!DOCTYPE svg PUBLIC "-//W3C//DTD SVG 20010904//EN"
 "http://www.w3.org/TR/2001/REC-SVG-20010904/DTD/svg10.dtd">
<svg version="1.0" xmlns="http://www.w3.org/2000/svg"
 width="512.000000pt" height="512.000000pt" viewBox="0 0 512.000000 512.000000"
 preserveAspectRatio="xMidYMid meet">
<metadata>
Created by potrace 1.14, written by Peter Selinger 2001-2017
</metadata>
<g transform="translate(0.000000,512.000000) scale(0.100000,-0.100000)"
fill="#000000" stroke="none">
<path d="M800 3915 l0 -135 270 0 270 0 0 -135 0 -135 135 0 135 0 0 -135 0
-135 135 0 135 0 0 135 0 135 -135 0 -135 0 0 135 0 135 -135 0 -135 0 0 135
0 135 -270 0 -270 0 0 -135z"/>
<path d="M3770 3915 l0 -135 -135 0 -135 0 0 -135 0 -135 -135 0 -135 0 0
-135 0 -135 135 0 135 0 0 135 0 135 135 0 135 0 0 135 0 135 265 0 265 0 0
135 0 135 -265 0 -265 0 0 -135z"/>
<path d="M530 3105 l0 -135 -135 0 -135 0 0 -405 0 -405 675 0 675 0 0 405 0
405 -135 0 -135 0 0 135 0 135 -405 0 -405 0 0 -135z m540 -270 l0 -135 -135
0 -135 0 0 -135 0 -135 -135 0 -135 0 0 135 0 135 135 0 135 0 0 135 0 135
135 0 135 0 0 -135z"/>
<path d="M3770 3105 l0 -135 -135 0 -135 0 0 -405 0 -405 670 0 670 0 0 405 0
405 -135 0 -135 0 0 135 0 135 -400 0 -400 0 0 -135z m530 -270 l0 -135 -135
0 -135 0 0 -135 0 -135 -130 0 -130 0 0 135 0 135 130 0 130 0 0 135 0 135
135 0 135 0 0 -135z"/>
<path d="M3500 1755 l0 -135 -945 0 -945 0 0 -135 0 -135 945 0 945 0 0 135 0
135 135 0 135 0 0 135 0 135 -135 0 -135 0 0 -135z"/>
</g>
</svg>
